<svg width="215" height="239" viewBox="0 0 215 239" fill="none" xmlns="http://www.w3.org/2000/svg">
<g filter="url(#filter0_d_35_41)">
<mask id="path-1-inside-1_35_41" fill="white">
<path d="M89.3304 2.3999C97.437 2.3999 103.218 10.3462 102.606 18.4297C102.47 20.2352 102.4 22.0594 102.4 23.8999C102.4 63.3883 134.412 95.3999 173.9 95.3999C177.897 95.3999 181.817 95.0718 185.635 94.4411C194.241 93.0196 203.4 98.9441 203.4 107.667V209.4C203.4 214.37 199.371 218.4 194.4 218.4H20.4C15.4295 218.4 11.4 214.37 11.4 209.4V11.3999C11.4 6.42934 15.4295 2.3999 20.4 2.3999H89.3304Z"/>
</mask>
<path d="M89.3304 2.3999C97.437 2.3999 103.218 10.3462 102.606 18.4297C102.47 20.2352 102.4 22.0594 102.4 23.8999C102.4 63.3883 134.412 95.3999 173.9 95.3999C177.897 95.3999 181.817 95.0718 185.635 94.4411C194.241 93.0196 203.4 98.9441 203.4 107.667V209.4C203.4 214.37 199.371 218.4 194.4 218.4H20.4C15.4295 218.4 11.4 214.37 11.4 209.4V11.3999C11.4 6.42934 15.4295 2.3999 20.4 2.3999H89.3304Z" fill="url(#paint0_linear_35_41)"/>
<path d="M203.4 209.4H204.4V209.4H203.4ZM11.4 209.4H10.4V209.4H11.4ZM11.4 11.3999H10.4V11.3999H11.4ZM185.635 94.4411L185.798 95.4278L185.635 94.4411ZM102.606 18.4297L101.609 18.3542L102.606 18.4297ZM102.606 18.4297L101.609 18.3542C101.471 20.1848 101.4 22.0342 101.4 23.8999H102.4H103.4C103.4 22.0846 103.469 20.2856 103.603 18.5052L102.606 18.4297ZM102.4 23.8999H101.4C101.4 63.9405 133.859 96.3999 173.9 96.3999V95.3999V94.3999C134.964 94.3999 103.4 62.836 103.4 23.8999H102.4ZM173.9 95.3999V96.3999C177.952 96.3999 181.926 96.0673 185.798 95.4278L185.635 94.4411L185.472 93.4545C181.708 94.0763 177.842 94.3999 173.9 94.3999V95.3999ZM203.4 107.667H202.4V209.4H203.4H204.4V107.667H203.4ZM203.4 209.4H202.4C202.4 213.818 198.818 217.4 194.4 217.4V218.4V219.4C199.923 219.4 204.4 214.923 204.4 209.4H203.4ZM194.4 218.4V217.4H20.4V218.4V219.4H194.4V218.4ZM20.4 218.4V217.4C15.9817 217.4 12.4 213.818 12.4 209.4H11.4H10.4C10.4 214.923 14.8772 219.4 20.4 219.4V218.4ZM11.4 209.4H12.4V11.3999H11.4H10.4V209.4H11.4ZM11.4 11.3999H12.4C12.4 6.98163 15.9817 3.3999 20.4 3.3999V2.3999V1.3999C14.8772 1.3999 10.4 5.87706 10.4 11.3999H11.4ZM20.4 2.3999V3.3999H89.3304V2.3999V1.3999H20.4V2.3999ZM185.635 94.4411L185.798 95.4278C189.832 94.7614 194.008 95.8189 197.165 98.0648C200.314 100.305 202.4 103.683 202.4 107.667H203.4H204.4C204.4 102.928 201.906 98.9827 198.325 96.435C194.751 93.8933 190.044 92.6993 185.472 93.4545L185.635 94.4411ZM102.606 18.4297L103.603 18.5052C104.248 9.99509 98.1628 1.3999 89.3304 1.3999V2.3999V3.3999C96.7113 3.3999 102.189 10.6973 101.609 18.3542L102.606 18.4297Z" fill="url(#paint1_linear_35_41)" mask="url(#path-1-inside-1_35_41)"/>
</g>
<defs>
<filter id="filter0_d_35_41" x="2.47955e-05" y="-9.72748e-05" width="214.8" height="238.8" filterUnits="userSpaceOnUse" color-interpolation-filters="sRGB">
<feFlood flood-opacity="0" result="BackgroundImageFix"/>
<feColorMatrix in="SourceAlpha" type="matrix" values="0 0 0 0 0 0 0 0 0 0 0 0 0 0 0 0 0 0 127 0" result="hardAlpha"/>
<feMorphology radius="3" operator="erode" in="SourceAlpha" result="effect1_dropShadow_35_41"/>
<feOffset dy="9"/>
<feGaussianBlur stdDeviation="7.2"/>
<feComposite in2="hardAlpha" operator="out"/>
<feColorMatrix type="matrix" values="0 0 0 0 0 0 0 0 0 0 0 0 0 0 0 0 0 0 0.25 0"/>
<feBlend mode="normal" in2="BackgroundImageFix" result="effect1_dropShadow_35_41"/>
<feBlend mode="normal" in="SourceGraphic" in2="effect1_dropShadow_35_41" result="shape"/>
</filter>
<linearGradient id="paint0_linear_35_41" x1="126.051" y1="218.4" x2="56.409" y2="46.5155" gradientUnits="userSpaceOnUse">
<stop stop-color="#861134"/>
<stop offset="1" stop-color="#6A3E1D"/>
</linearGradient>
<linearGradient id="paint1_linear_35_41" x1="107.4" y1="2.3999" x2="107.4" y2="218.4" gradientUnits="userSpaceOnUse">
<stop stop-color="white"/>
<stop offset="1" stop-color="#440A1B"/>
</linearGradient>
</defs>
</svg>
